<svg xmlns="http://www.w3.org/2000/svg" viewBox="0 0 160 180">
  <ellipse cx="80" cy="100" rx="70" ry="75" fill="none"/>
  <g opacity="0.55" fill="currentColor">
    <path d="M40 50 L42 44 L44 50 L50 52 L44 54 L42 60 L40 54 L34 52 Z"/>
    <path d="M110 70 L112 65 L114 70 L119 72 L114 74 L112 79 L110 74 L105 72 Z"/>
    <path d="M60 130 L62 124 L64 130 L70 132 L64 134 L62 140 L60 134 L54 132 Z"/>
    <path d="M120 120 L121 116 L122 120 L126 121 L122 122 L121 126 L120 122 L116 121 Z"/>
    <path d="M30 100 L31 97 L32 100 L35 101 L32 102 L31 105 L30 102 L27 101 Z"/>
    <path d="M90 40 L91 37 L92 40 L95 41 L92 42 L91 45 L90 42 L87 41 Z"/>
    <path d="M130 150 L131 147 L132 150 L135 151 L132 152 L131 155 L130 152 L127 151 Z"/>
  </g>
</svg>
