<svg xmlns="http://www.w3.org/2000/svg" viewBox="0 0 40 40" fill="none">
  <circle cx="20" cy="20" r="14" stroke="white" stroke-width="1.2" fill="none" stroke-opacity="0.35"/>
  <circle cx="20" cy="20" r="10" stroke="white" stroke-width="1.4" fill="none" stroke-opacity="0.55"/>
  <circle cx="20" cy="20" r="6" stroke="white" stroke-width="1.6" fill="none" stroke-opacity="0.75"/>
  <circle cx="20" cy="20" r="3" fill="white" fill-opacity="0.95"/>
  <path d="M20 6 C20 6 22 10 20 14 C18 10 20 6 20 6Z" fill="white" fill-opacity="0.7"/>
  <path d="M34 20 C34 20 30 22 26 20 C30 18 34 20 34 20Z" fill="white" fill-opacity="0.7"/>
  <path d="M20 34 C20 34 18 30 20 26 C22 30 20 34 20 34Z" fill="white" fill-opacity="0.7"/>
  <path d="M6 20 C6 20 10 18 14 20 C10 22 6 20 6 20Z" fill="white" fill-opacity="0.7"/>
</svg>
